.
 
http://www.scenetime.com    -  Hottest private tracker on the net. !!!

Sign up will close shortly !!  Join now 

        Seed back for speed


...................................NFO:.................................................








































          
          
              
              
                    
                    
                    
                    

Empty.2011.DVDRip.XviD.AC3-SiC

Poster:
[img]http://img41.imageshack.us/img41/538/mv5bmtkynjiymza3of5bml5.jpg[/img]

IMDB Link:
http://www.imdb.com/title/tt1624426/

Description:
Chronicles a day in the life of a grieving woman, and the twelve visitors who help her move forward. 

General
Complete name                    : I.Will.Follow.2011.DVDRip.XviD.AC3-SiC.avi
Format                           : AVI
Format/Info                      : Audio Video Interleave
File size                        : 1.37 GiB
Duration                         : 1h 19mn
Overall bit rate                 : 2 452 Kbps
Writing library                  : VirtualDub build 32839/release

Video
ID                               : 0
Format                           : MPEG-4 Visual
Format profile                   : Advanced Simple@L5
Format settings, BVOP            : 2
Format settings, QPel            : No
Format settings, GMC             : No warppoints
Format settings, Matrix          : Default (MPEG)
Muxing mode                      : Packed bitstream
Codec ID                         : XVID
Codec ID/Hint                    : XviD
Duration                         : 1h 19mn
Bit rate                         : 2 255 Kbps
Width                            : 720 pixels
Height                           : 384 pixels
Display aspect ratio             : 1.875
Frame rate                       : 23.976 fps
Color space                      : YUV
Chroma subsampling               : 4:2:0
Bit depth                        : 8 bits
Scan type                        : Progressive
Compression mode                 : Lossy
Bits/(Pixel*Frame)               : 0.340
Stream size                      : 1.26 GiB (92%)
Writing library                  : XviD 64

Audio
ID                               : 1
Format                           : AC-3
Format/Info                      : Audio Coding 3
Mode extension                   : CM (complete main)
Codec ID                         : 2000
Duration                         : 1h 19mn
Bit rate mode                    : Constant
Bit rate                         : 192 Kbps
Channel(s)                       : 2 channels
Channel positions                : Front: L R
Sampling rate                    : 48.0 KHz
Bit depth                        : 16 bits
Compression mode                 : Lossy
Delay relative to video          : 500ms
Stream size                      : 109 MiB (8%)
Alignment                        : Split accross interleaves
Interleave, duration             : 10917 ms (261.75 video frames)


Screenshots:
[img]http://img155.imageshack.us/img155/1053/snap1dm.png[/img]
[img]http://img703.imageshack.us/img703/4979/snap2q.png[/img]
[img]http://img199.imageshack.us/img199/9020/snap3s.png[/img]
[img]http://img855.imageshack.us/img855/6971/snap4.png[/img]
[img]http://img69.imageshack.us/img69/4831/snap5v.png[/img]

Note :   did my thing

Source Film : I.Will.Follow.2011.COMPLETE.R1.NTSC.DVDR-CME thanks

Encoder: scumbag

Enjoy!

Respects to CaptainHomey, Cyanide, CM8, Rx, THC, ELEKTRI4KA, 
Killerhz, PA, YeFsTe, BoxSlots, MrRep and everyone in the struggle...